<svg width="463" height="107" viewBox="0 0 463 107" fill="none" xmlns="http://www.w3.org/2000/svg">
<mask id="mask0_14314_38001" style="mask-type:luminance" maskUnits="userSpaceOnUse" x="234" y="34" width="64" height="63">
<path d="M297.868 34H234V96.495H297.868V34Z" fill="white"/>
</mask>
<g mask="url(#mask0_14314_38001)">
<path d="M264.533 52.438C263.225 51.5359 261.891 50.7058 260.299 50.3571C258.887 50.0489 257.531 50.2131 256.247 50.7913C255.425 51.1602 254.666 51.6799 253.909 52.177C253.342 52.5505 252.813 52.5707 252.214 52.2693C251.324 51.8216 250.644 51.1715 250.004 50.4111C249.529 49.8487 248.871 49.32 248.189 49.0748C246.662 48.5259 245.067 48.1637 243.5 47.7273C243.211 47.6463 242.923 47.563 242.63 47.5001C241.214 47.1941 241.144 46.3055 241.295 45.2256C241.493 43.8196 242.054 42.5531 242.747 41.3315C243.574 40.1865 244.624 39.2956 245.856 38.6162C247.056 38.2855 248.241 37.8626 249.461 37.6579C250.315 37.5139 251.22 37.6354 252.096 37.7029C253.074 37.7771 253.975 37.5994 254.711 36.9537C257.274 34.7064 260.297 33.8717 263.639 34.0157C265.754 34.108 267.799 34.4904 269.646 35.6017C271.114 36.4858 272.299 37.6534 273.114 39.1696C273.738 40.3327 274.333 41.5115 274.941 42.6813C275.013 42.913 275.08 43.147 275.159 43.3765C275.844 45.4079 275.472 47.2233 273.808 48.5889C272.621 49.5629 271.823 50.7485 271.17 52.0915C270.632 53.2006 269.939 54.204 268.819 54.8046C267.628 55.4458 267.173 55.1263 266.524 54.3929C265.909 53.6978 265.2 53.0859 264.531 52.438H264.533Z" fill="#D58D41"/>
<path d="M277.696 40.5283C283.144 41.8466 286.578 45.5787 289.274 50.1838C289.792 51.0679 290.238 51.9947 290.718 52.9013C290.734 52.9553 290.74 53.0138 290.763 53.0633C291.876 55.4749 292.72 57.981 293.382 60.5523C293.56 61.2407 293.378 61.8234 292.835 62.0371C292.459 62.1833 292.047 62.2418 291.648 62.3295C290.47 62.5905 289.324 62.3318 288.168 62.1293C287.27 61.9719 286.655 61.4949 286.173 60.7345C285.727 60.0282 285.18 59.387 284.677 58.7166C283.31 57.1329 281.581 56.0261 279.763 55.0497C279.04 54.6605 278.283 54.3321 277.533 53.9946C276.558 53.5537 275.745 52.9283 275.117 52.051C274.727 51.5065 274.691 50.9734 275.04 50.438C275.479 49.7653 275.921 49.0859 276.441 48.4808C277.281 47.5044 277.146 46.3729 277.112 45.2345C277.09 44.4224 277.083 43.6103 277.119 42.7982C277.141 42.265 277.254 41.7364 277.326 41.2054L277.693 40.5306L277.696 40.5283Z" fill="#4B8D9A"/>
<path d="M263.035 53.862C263.601 54.4312 264.229 54.9531 264.718 55.5807C265.639 56.7663 265.95 58.2151 266.204 59.6503C266.366 60.5614 266.477 61.5108 266.414 62.4286C266.321 63.7739 266.139 65.1282 265.844 66.4443C265.474 68.0954 264.456 69.3351 262.952 70.127C260.981 71.1639 259.103 72.3383 257.673 74.0637C256.725 75.2111 255.939 76.4933 255.083 77.715C254.729 78.2188 254.405 78.7429 254.022 79.2246C253.768 79.5462 253.407 79.643 253.018 79.4088C251.68 78.6079 250.196 78.4213 248.678 78.2637C246.905 78.0792 245.193 78.2029 243.466 78.6372C242.232 78.9478 241.34 79.6136 240.671 80.637C240.169 81.4044 239.709 82.2008 239.198 82.9609C238.007 84.7292 236.824 84.7047 235.775 82.8507C235.317 82.0432 234.995 81.1546 234.612 80.3043C233.601 77.8477 234.169 75.2696 234.054 72.7477C234.007 71.7015 234.027 70.6532 234.04 69.605C234.067 67.5509 234.108 65.4972 234.153 63.4432C234.178 62.3251 234.18 61.2026 234.275 60.089C234.419 58.4108 234.509 56.7146 234.847 55.0723C235.455 52.1118 237.939 49.8554 240.941 49.446C243.002 49.1648 244.943 49.6597 246.637 50.861C247.621 51.5584 248.495 52.4178 249.387 53.2366C250.308 54.0802 251.148 55.0183 252.108 55.8124C253.207 56.7213 254.119 56.2174 254.871 55.259C255.988 53.8395 257.436 53.0657 259.229 52.8879C260.621 52.7507 261.907 52.9892 263.035 53.8598V53.862Z" fill="#A8374E"/>
<path d="M295.789 67.3937C296.483 68.6421 296.85 69.9695 296.828 71.4068C296.803 72.9298 296.884 74.4552 296.805 75.9737C296.639 79.1434 295.609 81.9848 293.54 84.457C292.938 85.177 292.594 86.1264 292.204 87.0037C291.922 87.6336 292.026 88.2814 292.402 88.8753C292.94 89.7256 293.472 90.5807 294.008 91.4331C294.684 92.4185 295.506 93.1855 296.76 93.3655C297.402 93.4578 297.778 93.9595 297.841 94.6816C297.936 95.7346 297.846 95.8694 296.767 96.1213C293.506 96.8842 290.432 96.5152 287.627 94.5714C287.553 94.5198 287.463 94.486 287.382 94.4432C284.666 92.3915 282.278 89.9958 280.042 87.4401C279.997 87.3883 279.934 87.3523 279.846 87.2849C278.517 89.3704 276.718 90.0383 274.382 89.0688C273.772 90.8775 272.61 92.1307 270.835 92.6794C269.848 92.9855 268.794 93.152 267.763 93.1993C266.695 93.2487 265.612 93.1116 264.542 92.9944C263.009 92.8234 261.831 92.0001 260.842 90.8572C260.072 89.9664 259.277 89.0958 258.491 88.2161C257.466 86.8956 256.838 85.375 256.687 83.7439C256.437 81.015 256.896 78.4662 259.018 76.4326C260.263 75.2402 261.623 74.2548 263.141 73.4498C265.214 72.3497 266.88 70.777 268.236 68.8715C268.695 68.2281 268.905 67.515 268.894 66.712C268.873 65.1777 268.849 63.639 268.934 62.1069C269.006 60.8269 269.218 59.5559 269.394 58.2826C269.587 56.8721 270.535 56.1342 271.83 55.9182C273.071 55.7112 274.344 55.6662 275.607 55.6235C276.098 55.6077 276.594 55.7945 277.089 55.88C277.981 56.0329 278.725 56.4221 279.4 57.0453C280.582 58.1363 281.833 59.1554 283.056 60.2038C283.132 60.2847 283.2 60.3792 283.287 60.4445C284.785 61.5265 284.886 63.189 284.148 64.6535C283.396 66.1451 283.33 67.6995 283.508 69.3037C283.781 71.7668 284.943 73.8343 286.407 75.7623C286.56 75.9647 286.772 76.1468 286.997 76.266C287.454 76.5092 287.995 76.257 288.058 75.7464C288.132 75.157 288.168 74.5519 288.125 73.9625C288.085 73.409 287.821 72.9526 287.312 72.624C287.013 72.4305 286.747 72.1223 286.573 71.8073C285.833 70.4667 285.501 69.0045 285.715 67.4925C285.902 66.163 286.855 65.3127 288.01 64.7706C289.578 64.035 291.179 64.2621 292.744 64.8515C294.048 65.3442 295.015 66.2553 295.789 67.3868V67.3937Z" fill="#653B76"/>
<path d="M255.973 90.4206C255.565 91.2598 254.883 91.8064 254.065 92.2069C252.784 92.5106 251.516 92.9649 250.216 93.082C248.642 93.2213 247.18 92.5869 245.773 91.8987C244.115 91.0888 242.514 90.1981 241.266 88.8009C240.656 88.1192 240.14 87.359 240.25 86.3982C240.309 85.8786 240.458 85.3071 240.75 84.8866C241.75 83.4469 243.023 82.2949 244.723 81.7214C245.124 81.5863 245.559 81.5369 245.984 81.501C248.935 81.2398 251.779 81.2895 254.104 83.5975C255.005 84.4927 255.878 85.3523 256.045 86.648C256.207 87.9011 256.367 89.172 255.975 90.4206H255.973Z" fill="#752B3A"/>
</g>
<path d="M7.918 86V39.38C7.918 36.6667 8.33733 34.3233 9.176 32.35C10.0147 30.3767 11.2973 28.8473 13.024 27.762C14.7507 26.6767 16.946 26.134 19.61 26.134C20.8433 26.134 22.0273 26.2573 23.162 26.504C24.346 26.7507 25.4067 27.0467 26.344 27.392L24.864 32.646C23.384 31.906 21.8793 31.536 20.35 31.536C18.426 31.536 16.9953 32.202 16.058 33.534C15.1207 34.866 14.652 36.8393 14.652 39.454V86H7.918ZM2.442 51.294V46.188L8.214 45.818H23.162V51.294H2.442ZM45.4747 86.962C42.2187 86.962 39.1601 86.148 36.2987 84.52C33.4374 82.8427 31.1434 80.45 29.4167 77.342C27.7394 74.1847 26.9007 70.386 26.9007 65.946C26.9007 61.4567 27.7394 57.658 29.4167 54.55C31.1434 51.3927 33.4374 48.9753 36.2987 47.298C39.1601 45.6207 42.2187 44.782 45.4747 44.782C47.9414 44.782 50.2847 45.2507 52.5047 46.188C54.7741 47.1253 56.7721 48.5067 58.4987 50.332C60.2254 52.1573 61.5821 54.3773 62.5687 56.992C63.5554 59.6067 64.0487 62.5913 64.0487 65.946C64.0487 70.386 63.1854 74.1847 61.4587 77.342C59.7321 80.45 57.4627 82.8427 54.6507 84.52C51.8387 86.148 48.7801 86.962 45.4747 86.962ZM45.4747 81.338C47.7934 81.338 49.8161 80.6967 51.5427 79.414C53.3187 78.1313 54.7001 76.3307 55.6867 74.012C56.6734 71.6933 57.1667 69.0047 57.1667 65.946C57.1667 62.838 56.6734 60.1247 55.6867 57.806C54.7001 55.4873 53.3187 53.6867 51.5427 52.404C49.8161 51.1213 47.7934 50.48 45.4747 50.48C43.1561 50.48 41.1087 51.1213 39.3327 52.404C37.6061 53.6867 36.2494 55.4873 35.2627 57.806C34.3254 60.1247 33.8567 62.838 33.8567 65.946C33.8567 69.0047 34.3254 71.6933 35.2627 74.012C36.2494 76.3307 37.6061 78.1313 39.3327 79.414C41.1087 80.6967 43.1561 81.338 45.4747 81.338ZM90.5737 86.962C87.0217 86.962 83.815 86.148 80.9537 84.52C78.1417 82.8427 75.897 80.45 74.2197 77.342C72.5917 74.1847 71.7777 70.386 71.7777 65.946C71.7777 61.4567 72.6657 57.658 74.4417 54.55C76.2177 51.3927 78.5857 48.9753 81.5457 47.298C84.5057 45.6207 87.6877 44.782 91.0917 44.782C93.7064 44.782 95.951 45.2507 97.8257 46.188C99.7497 47.1253 101.402 48.2353 102.784 49.518L99.3797 53.958C98.245 52.922 97.0117 52.0833 95.6797 51.442C94.397 50.8007 92.9664 50.48 91.3877 50.48C88.9704 50.48 86.7997 51.1213 84.8757 52.404C82.9517 53.6867 81.447 55.4873 80.3617 57.806C79.2764 60.1247 78.7337 62.838 78.7337 65.946C78.7337 69.0047 79.2517 71.6933 80.2877 74.012C81.373 76.3307 82.8284 78.1313 84.6537 79.414C86.5284 80.6967 88.699 81.338 91.1657 81.338C93.0404 81.338 94.767 80.968 96.3457 80.228C97.9244 79.4387 99.355 78.4767 100.638 77.342L103.598 81.93C101.772 83.5087 99.7497 84.742 97.5297 85.63C95.3097 86.518 92.991 86.962 90.5737 86.962ZM124.226 86.962C119.984 86.962 116.851 85.63 114.828 82.966C112.855 80.302 111.868 76.4047 111.868 71.274V45.818H118.676V70.46C118.676 74.16 119.268 76.8733 120.452 78.6C121.636 80.2773 123.56 81.116 126.224 81.116C128.296 81.116 130.146 80.5733 131.774 79.488C133.402 78.4027 135.178 76.676 137.102 74.308V45.818H143.836V86H138.212L137.694 79.71H137.472C135.598 81.8807 133.6 83.632 131.478 84.964C129.406 86.296 126.989 86.962 124.226 86.962ZM167.918 86.962C165.106 86.962 162.368 86.444 159.704 85.408C157.089 84.3227 154.844 82.9907 152.97 81.412L156.226 76.898C158.002 78.3287 159.827 79.488 161.702 80.376C163.576 81.264 165.722 81.708 168.14 81.708C170.804 81.708 172.777 81.116 174.06 79.932C175.392 78.6987 176.058 77.194 176.058 75.418C176.058 74.0367 175.589 72.902 174.652 72.014C173.764 71.0767 172.604 70.2873 171.174 69.646C169.792 68.9553 168.362 68.3387 166.882 67.796C165.007 67.056 163.157 66.242 161.332 65.354C159.556 64.4167 158.076 63.2327 156.892 61.802C155.757 60.322 155.19 58.4473 155.19 56.178C155.19 54.0073 155.732 52.0833 156.818 50.406C157.903 48.6793 159.482 47.3227 161.554 46.336C163.626 45.3 166.117 44.782 169.028 44.782C171.494 44.782 173.788 45.226 175.91 46.114C178.08 47.002 179.93 48.0873 181.46 49.37L178.204 53.588C176.822 52.6013 175.392 51.7627 173.912 51.072C172.481 50.3813 170.878 50.036 169.102 50.036C166.536 50.036 164.637 50.628 163.404 51.812C162.22 52.9467 161.628 54.3033 161.628 55.882C161.628 57.1153 162.022 58.1513 162.812 58.99C163.65 59.8287 164.736 60.544 166.068 61.136C167.4 61.6787 168.806 62.246 170.286 62.838C171.766 63.3807 173.221 63.9727 174.652 64.614C176.132 65.2553 177.439 66.02 178.574 66.908C179.758 67.796 180.695 68.906 181.386 70.238C182.126 71.5207 182.496 73.124 182.496 75.048C182.496 77.2187 181.928 79.2167 180.794 81.042C179.708 82.8673 178.08 84.3227 175.91 85.408C173.788 86.444 171.124 86.962 167.918 86.962ZM192.025 102.946V45.818H197.575L198.241 50.48H198.389C200.214 48.9507 202.212 47.6187 204.383 46.484C206.603 45.3493 208.872 44.782 211.191 44.782C214.644 44.782 217.555 45.6453 219.923 47.372C222.34 49.0493 224.141 51.4173 225.325 54.476C226.558 57.5347 227.175 61.136 227.175 65.28C227.175 69.868 226.336 73.79 224.659 77.046C223.031 80.2527 220.885 82.7193 218.221 84.446C215.606 86.1233 212.769 86.962 209.711 86.962C207.885 86.962 206.035 86.5673 204.161 85.778C202.286 84.9393 200.436 83.78 198.611 82.3L198.833 89.33V102.946H192.025ZM208.601 81.264C210.821 81.264 212.794 80.6473 214.521 79.414C216.297 78.1313 217.678 76.306 218.665 73.938C219.651 71.5207 220.145 68.6593 220.145 65.354C220.145 62.394 219.775 59.804 219.035 57.584C218.344 55.3147 217.234 53.5633 215.705 52.33C214.175 51.0967 212.103 50.48 209.489 50.48C207.811 50.48 206.085 50.9487 204.309 51.886C202.582 52.8233 200.757 54.18 198.833 55.956V77.12C200.609 78.6493 202.36 79.7347 204.087 80.376C205.813 80.968 207.318 81.264 208.601 81.264ZM304.109 86V45.818H309.659L310.325 51.664H310.473C312.397 49.74 314.419 48.112 316.541 46.78C318.711 45.448 321.178 44.782 323.941 44.782C328.183 44.782 331.291 46.1387 333.265 48.852C335.238 51.516 336.225 55.4133 336.225 60.544V86H329.491V61.432C329.491 57.6333 328.874 54.8953 327.641 53.218C326.457 51.5407 324.533 50.702 321.869 50.702C319.797 50.702 317.947 51.22 316.319 52.256C314.691 53.292 312.89 54.8213 310.917 56.844V86H304.109ZM362.817 104.5C359.561 104.5 356.675 104.081 354.159 103.242C351.643 102.403 349.694 101.17 348.313 99.542C346.931 97.9633 346.241 96.0393 346.241 93.77C346.241 92.0433 346.759 90.366 347.795 88.738C348.831 87.1593 350.286 85.8027 352.161 84.668V84.298C351.125 83.6567 350.261 82.7933 349.571 81.708C348.88 80.6227 348.535 79.2907 348.535 77.712C348.535 76.0347 349.003 74.5547 349.941 73.272C350.927 71.9893 351.939 70.978 352.975 70.238V69.942C351.643 68.906 350.434 67.4507 349.349 65.576C348.263 63.7013 347.721 61.5553 347.721 59.138C347.721 56.178 348.411 53.6373 349.793 51.516C351.174 49.3453 352.999 47.6927 355.269 46.558C357.587 45.374 360.079 44.782 362.743 44.782C363.927 44.782 364.987 44.8807 365.925 45.078C366.911 45.2753 367.75 45.522 368.441 45.818H382.427V50.998H374.213C375.199 51.9353 375.989 53.1193 376.581 54.55C377.173 55.9807 377.469 57.5593 377.469 59.286C377.469 62.1473 376.803 64.6387 375.471 66.76C374.188 68.832 372.437 70.4353 370.217 71.57C367.997 72.7047 365.505 73.272 362.743 73.272C361.805 73.272 360.794 73.1487 359.709 72.902C358.673 72.6553 357.711 72.31 356.823 71.866C356.083 72.458 355.466 73.124 354.973 73.864C354.479 74.604 354.233 75.5413 354.233 76.676C354.233 77.9093 354.726 78.9453 355.713 79.784C356.699 80.6227 358.549 81.042 361.263 81.042H369.181C373.818 81.042 377.296 81.8067 379.615 83.336C381.983 84.8653 383.167 87.2827 383.167 90.588C383.167 93.0547 382.328 95.3487 380.651 97.47C378.973 99.5913 376.605 101.293 373.547 102.576C370.537 103.859 366.961 104.5 362.817 104.5ZM362.743 68.684C364.321 68.684 365.752 68.2893 367.035 67.5C368.367 66.7107 369.403 65.6007 370.143 64.17C370.932 62.7393 371.327 61.062 371.327 59.138C371.327 57.1647 370.932 55.4873 370.143 54.106C369.403 52.6753 368.391 51.59 367.109 50.85C365.826 50.11 364.371 49.74 362.743 49.74C361.213 49.74 359.783 50.11 358.451 50.85C357.168 51.59 356.132 52.6507 355.343 54.032C354.603 55.4133 354.233 57.1153 354.233 59.138C354.233 61.062 354.627 62.7393 355.417 64.17C356.206 65.6007 357.242 66.7107 358.525 67.5C359.807 68.2893 361.213 68.684 362.743 68.684ZM363.779 99.838C366.344 99.838 368.564 99.4433 370.439 98.654C372.363 97.8647 373.843 96.8287 374.879 95.546C375.964 94.3127 376.507 93.03 376.507 91.698C376.507 89.774 375.816 88.442 374.435 87.702C373.053 86.962 371.031 86.592 368.367 86.592H361.411C360.671 86.592 359.832 86.5427 358.895 86.444C358.007 86.3947 357.119 86.2467 356.231 86C354.8 86.9867 353.764 88.072 353.123 89.256C352.481 90.4893 352.161 91.6733 352.161 92.808C352.161 94.9293 353.172 96.6313 355.195 97.914C357.267 99.1967 360.128 99.838 363.779 99.838ZM416.843 86.962C414.623 86.962 412.625 86.518 410.849 85.63C409.073 84.742 407.667 83.4593 406.631 81.782C405.644 80.0553 405.151 77.9833 405.151 75.566C405.151 71.1753 407.1 67.8207 410.997 65.502C414.944 63.134 421.209 61.4813 429.793 60.544C429.793 58.8173 429.546 57.1893 429.053 55.66C428.609 54.0813 427.795 52.8233 426.611 51.886C425.427 50.8993 423.725 50.406 421.505 50.406C419.186 50.406 416.991 50.8747 414.919 51.812C412.896 52.7 411.071 53.662 409.443 54.698L406.853 50.036C408.086 49.2467 409.517 48.4573 411.145 47.668C412.773 46.8293 414.549 46.1387 416.473 45.596C418.397 45.0533 420.444 44.782 422.615 44.782C425.871 44.782 428.51 45.4727 430.533 46.854C432.605 48.2353 434.11 50.1593 435.047 52.626C436.034 55.0433 436.527 57.9293 436.527 61.284V86H430.977L430.385 81.19H430.163C428.288 82.7687 426.216 84.1253 423.947 85.26C421.727 86.3947 419.359 86.962 416.843 86.962ZM418.767 81.486C420.691 81.486 422.516 81.042 424.243 80.154C426.019 79.266 427.869 77.9587 429.793 76.232V65.058C425.304 65.5513 421.727 66.2667 419.063 67.204C416.399 68.092 414.5 69.202 413.365 70.534C412.23 71.8167 411.663 73.346 411.663 75.122C411.663 77.4407 412.354 79.0933 413.735 80.08C415.116 81.0173 416.794 81.486 418.767 81.486ZM449.29 86V45.818H456.098V86H449.29ZM452.694 37.53C451.362 37.53 450.277 37.1353 449.438 36.346C448.649 35.5073 448.254 34.3973 448.254 33.016C448.254 31.684 448.649 30.6233 449.438 29.834C450.277 29.0447 451.362 28.65 452.694 28.65C454.026 28.65 455.112 29.0447 455.95 29.834C456.789 30.6233 457.208 31.684 457.208 33.016C457.208 34.3973 456.789 35.5073 455.95 36.346C455.112 37.1353 454.026 37.53 452.694 37.53Z" fill="white"/>
</svg>
