<svg width="138" height="123" viewBox="0 0 138 123" fill="none" xmlns="http://www.w3.org/2000/svg">
<g clip-path="url(#clip0_904_13754)">
<path d="M54.0589 44.0331C54.0589 44.0331 33.4829 42.0587 29.1215 53.4333C24.7602 64.808 24.6203 66.6815 26.6378 69.1447C29.2818 72.3798 43.9957 65.5143 43.9957 65.5143L54.0589 44.0331Z" fill="#00A776"/>
<path d="M85.0756 66.6719C85.0756 66.6719 94.4718 85.0585 85.4732 93.2854C76.4746 101.512 74.7743 102.329 71.7366 101.363C67.7574 100.09 68.7557 83.9206 68.7557 83.9206L85.0794 66.6828L85.0756 66.6719Z" fill="#00A776"/>
<path d="M107.177 31.2934C110.925 21.7012 113.61 9.1149 107.327 4.84272C99.5283 -0.464592 88.475 6.9406 80.0456 13.8535C87.8438 21.4998 97.1215 27.28 107.166 31.2972L107.177 31.2934Z" fill="#EF3737"/>
<path d="M41.7254 68.5152C41.7254 68.5152 21.8402 82.3502 23.7781 91.8571C25.727 101.36 35.2967 94.5858 35.2967 94.5858C35.2967 94.5858 20.2429 108.941 28.6363 116.256C37.0296 123.571 44.8389 107.411 44.8389 107.411C44.8389 107.411 44.6354 110.397 49.5529 113.924C58.2633 120.185 67.5937 87.1086 67.5937 87.1086L41.7254 68.5152Z" fill="#EF3737"/>
<path d="M46.0017 71.5806C46.0017 71.5806 32.3452 81.0748 33.6817 87.6094C35.0143 94.133 41.5897 89.4869 41.5897 89.4869C41.5897 89.4869 31.2509 99.3473 37.0109 104.366C42.7709 109.385 48.1393 98.2937 48.1393 98.2937C48.1393 98.2937 47.9984 100.339 51.3658 102.769C57.3527 107.072 63.7595 84.3638 63.7595 84.3638L45.9946 71.5954L46.0017 71.5806Z" fill="#FFB700"/>
<path d="M80.0561 13.8497C44.6577 47.6868 41.7248 68.5145 41.7248 68.5145C49.0558 83.2181 67.5931 87.1079 67.5931 87.1079C66.7508 88.2728 87.1192 79.974 107.177 31.2934C97.1319 27.2762 87.8543 21.496 80.0561 13.8497Z" fill="#0054C2"/>
<path d="M85.4653 59.4586C81.6555 64.7504 73.0983 67.3494 67.2113 63.1219C61.3243 58.8944 58.1679 51.0885 62.9816 44.4282C66.7914 39.1364 74.9737 37.3914 80.8607 41.6189C86.7477 45.8463 89.279 54.1778 85.4692 59.4695L85.4653 59.4586Z" fill="#00A776"/>
<path d="M79.5698 43.6028C76.6798 41.5192 73.1033 41.2193 70.034 42.2597C68.0278 42.9393 66.2462 44.1889 65.0168 45.8937C61.1028 51.3078 63.6662 57.6689 68.4543 61.1066C72.3618 63.9228 77.7352 63.0166 81.2541 60.2512C82.0425 59.6317 82.738 58.9223 83.308 58.1346C86.4119 53.8374 84.3469 47.0443 79.5589 43.6066L79.5698 43.6028Z" fill="#F1F1F1"/>
</g>
<defs>
<clipPath id="clip0_904_13754">
<rect width="113.61" height="90.0689" fill="white" transform="translate(0 37.6592) rotate(-19.3375)"/>
</clipPath>
</defs>
</svg>
