<svg width="88" height="99" viewBox="0 0 88 99" fill="none" xmlns="http://www.w3.org/2000/svg">
<path d="M55.546 38.1396C54.5375 43.8692 56.6807 50.0298 58.6171 54.1143C59.9751 56.982 61.234 58.8416 61.234 58.8416L45.8392 68.9651C45.8392 68.9651 41.6083 56.266 29.0462 53.7987C17.6536 51.5635 7.48714 45.9192 8.24699 34.765C8.32402 33.6211 8.51549 32.4071 8.84055 31.1391C13.377 13.1832 31.5752 5.99039 44.566 9.62647C57.5569 13.2625 57.2724 28.3826 55.5501 38.1463L55.546 38.1396Z" fill="#FFC331"/>
<path d="M45.8365 68.976C45.8365 68.976 41.6056 56.2768 29.0436 53.8096C17.6535 51.5635 7.48708 45.9192 8.24692 34.765C11.3924 41.1113 18.6364 50.9617 33.1668 50.4762C47.9343 49.985 54.1031 52.426 58.617 54.1142C59.975 56.982 61.2339 58.8415 61.2339 58.8415L45.8391 68.9651L45.8365 68.976Z" fill="#FF9331"/>
<path d="M51.1649 67.3685C51.0775 67.1804 44.2615 52.0581 37.5041 42.3373C37.617 42.2496 37.7231 42.166 37.836 42.0783C39.0561 41.1082 40.1975 40.0096 41.223 38.8426C47.991 49.5328 57.8919 63.6771 58.0006 63.8243L58.4485 63.5129C58.3466 63.3615 48.3577 49.1038 41.5965 38.4094C44.7502 34.6566 46.6725 30.3287 46.2075 27.4531C45.9415 25.7943 44.9614 24.647 43.5279 24.3164C41.8553 23.9278 39.9545 24.7385 38.8035 26.3355C37.9437 27.5312 36.3081 30.9215 39.8079 36.5767C40.1639 37.1581 40.5349 37.7489 40.9141 38.3532C39.8876 39.5487 38.7342 40.6732 37.5007 41.6516C37.4012 41.7311 37.3018 41.8105 37.1957 41.8941C35.6417 39.704 34.1032 37.8112 32.652 36.469C29.4293 33.4883 26.9674 33.9268 25.7858 34.4459C24.0351 35.2297 22.8664 37.1908 22.8977 39.328C22.93 41.7992 24.4829 43.897 27.0613 44.9486C29.9119 46.1124 33.4405 45.2995 37.0779 42.6541C43.7939 52.3072 50.596 67.3916 50.6767 67.5838L51.1717 67.3644L51.1649 67.3685ZM32.2755 36.8669C33.7076 38.1929 35.2254 40.0519 36.756 42.2191C34.4552 43.8882 30.7171 45.8703 27.2592 44.4556C24.8905 43.4894 23.467 41.5727 23.4331 39.3255C23.4094 37.3974 24.4434 35.6396 25.9999 34.9468C26.7202 34.6266 27.4999 34.5395 28.3199 34.6695C29.58 34.8832 30.9283 35.619 32.2755 36.8669ZM43.39 24.847C44.6102 25.1316 45.4175 26.0872 45.6582 27.5385C46.0895 30.1929 44.2424 34.3262 41.2767 37.9174C40.9305 37.3672 40.5885 36.8237 40.2615 36.2897C36.9314 30.9116 38.4355 27.7599 39.2352 26.6475C40.2194 25.292 41.7836 24.5665 43.1985 24.8063C43.2596 24.8153 43.3315 24.827 43.3967 24.8429L43.39 24.847Z" fill="white"/>
<path d="M57.8925 64.4019L57.657 64.0628C57.2482 63.4858 47.8151 49.9846 41.1661 39.5189C40.2018 40.5742 39.1727 41.5389 38.095 42.3939L38.0614 42.4145C44.8296 52.2588 51.478 67.0469 51.5406 67.1944L51.7088 67.5748L50.4598 68.1351L50.2917 67.7547C50.0139 67.1347 43.4875 52.7274 36.9672 43.2426C33.3407 45.7698 29.7775 46.5109 26.8942 45.3393C24.158 44.2263 22.5072 41.9839 22.4704 39.3389C22.4386 37.0347 23.6964 34.9168 25.605 34.0734C26.8782 33.5076 29.524 33.0215 32.9206 36.1653C34.2295 37.3809 35.693 39.1059 37.2686 41.3013C38.3624 40.4271 39.4059 39.4256 40.39 38.3118C40.0713 37.7913 39.7473 37.2925 39.441 36.7923C35.8087 30.9207 37.5387 27.3518 38.4493 26.0879C39.695 24.3585 41.7672 23.48 43.6029 23.9082C45.2103 24.281 46.3001 25.547 46.5992 27.3808C47.0652 30.2278 45.3014 34.5424 42.0963 38.4381C48.7028 48.8648 58.3549 62.6781 58.7678 63.2618L59.0033 63.6009L57.8883 64.3952L57.8925 64.4019ZM25.782 35.5265C24.5905 36.2561 23.8258 37.7282 23.8486 39.3222C23.8779 41.3956 25.2077 43.1745 27.4145 44.0727C30.4789 45.3286 33.8068 43.7649 36.177 42.1184C34.6536 39.9932 33.245 38.3276 31.9909 37.1714C30.7287 36.0018 29.4305 35.2723 28.2507 35.0838C27.5093 34.9615 26.8068 35.0385 26.1688 35.3269C26.0394 35.3875 25.9032 35.4523 25.782 35.5265ZM40.8319 25.7164C40.3607 26.005 39.9272 26.4005 39.5735 26.896C38.8203 27.9334 37.4214 30.9091 40.6191 36.0709C40.8468 36.4427 41.0786 36.8213 41.3212 37.2025C44.0633 33.7297 45.6307 29.9257 45.2531 27.6009C45.1064 26.6962 44.6481 25.5547 43.3016 25.2452C43.2473 25.232 43.1862 25.223 43.1318 25.2098C42.362 25.0863 41.5481 25.2686 40.8278 25.7097L40.8319 25.7164Z" fill="white"/>
<path d="M69.9836 76.2745C72.9522 82.0599 62.6 89.0214 57.758 84.1972C53.351 84.7393 53.2879 80.0562 53.2879 80.0562C53.2879 80.0562 52.4431 79.8857 51.5637 79.2809C50.5327 78.5645 49.4356 77.2565 49.5783 74.9198C48.4715 74.5937 47.6946 73.9447 47.1497 73.1909C45.8385 71.3819 45.8394 68.9648 45.8394 68.9648L61.2342 58.8412C61.2342 58.8412 63.6185 59.6213 64.5984 61.6146C65.0169 62.4644 65.1858 63.5414 64.7882 64.8723C66.3584 65.0634 67.1616 65.8914 67.5231 66.8598C68.1604 68.5051 67.5689 70.5775 67.5689 70.5775C67.5689 70.5775 72.381 72.3899 69.9903 76.2704L69.9836 76.2745Z" fill="#4450E6"/>
<path d="M64.783 64.8765L49.5798 74.9199C48.473 74.5938 47.6962 73.9448 47.1513 73.191L64.5999 61.6147C65.0184 62.4645 65.1873 63.5415 64.7898 64.8724L64.783 64.8765Z" fill="#439FFB"/>
<path d="M67.5191 66.8709C68.1564 68.5163 67.5649 70.5887 67.5649 70.5887L53.2907 80.0633C53.2907 80.0633 52.4458 79.8928 51.5664 79.288L67.53 66.8736L67.5191 66.8709Z" fill="#439FFB"/>
<g style="mix-blend-mode:soft-light" opacity="0.64">
<path d="M28.9493 16.03C28.3546 21.4225 40.9435 18.25 41.8618 14.3231C42.7801 10.3961 29.544 10.6374 28.9493 16.03Z" fill="white"/>
</g>
<g style="mix-blend-mode:soft-light" opacity="0.64">
<path d="M43.4587 17.0988C40.6386 21.7442 47.1524 23.3883 49.6469 20.2064C52.1413 17.0246 46.2855 12.4494 43.4587 17.0988Z" fill="white"/>
</g>
</svg>
