<svg width="165" height="168" viewBox="0 0 165 168" fill="none" xmlns="http://www.w3.org/2000/svg">
<g clip-path="url(#clip0_909_14453)">
<path d="M164.896 57.3974C163.35 59.5086 157.051 60.8158 157.051 60.8158C157.051 60.8158 163.838 60.3178 162.562 62.2008C161.996 63.0359 157.461 63.4042 157.461 63.4042C157.461 63.4042 154.032 67.5125 150.363 68.5137L147.52 72.1707L110.542 119.805L95.5 109.659C95.5 109.659 105.986 94.5123 140.739 64.0993C142.134 62.8751 143.566 61.6302 145.045 60.3593L145.066 60.3852C145.097 60.3334 145.133 60.2867 145.164 60.2348C145.164 60.2348 145.434 49.4142 146.996 51.0637C147.863 51.9819 148.309 53.0816 149.025 54.3991C149.59 55.4573 150.457 55.0787 150.457 55.0787C150.457 55.0787 160.512 46.1151 160.268 49.0044C160.045 51.8003 155.848 55.6908 155.588 55.9398C155.957 55.7167 163.573 51.0897 162.873 53.7404C162.198 56.2873 157.591 57.8694 157.015 58.0613C157.747 57.885 166.007 55.8775 164.891 57.3974H164.896Z" fill="#FFD1C7"/>
<g opacity="0.35">
<path d="M128.472 96.7172L121.135 82.001C101.875 100.457 95.5039 109.659 95.5039 109.659L109.461 119.074L111.344 118.768L128.467 96.7172H128.472Z" fill="#FFB2A8"/>
</g>
<path d="M97.4388 102.874C97.4388 102.874 114.846 83.3541 116.289 84.2256C117.736 85.0971 125.286 100.317 125.286 100.317L128.834 95.705C128.834 95.705 129.301 102.314 128.331 104.259C127.361 106.204 111.469 123.602 111.469 123.602L97.4336 102.874H97.4388Z" fill="#FFD45C"/>
<g opacity="0.11">
<path d="M99.5711 100.224C98.2325 101.655 97.3867 102.579 97.3867 102.579L111.448 122.85C111.448 122.85 112.615 121.606 114.338 119.759C109.735 110.909 104.542 103.071 99.5711 100.229V100.224Z" fill="#883023"/>
</g>
<path d="M19.8474 83.1468C19.8059 83.0949 19.7488 83.0378 19.7073 82.986C19.7073 82.986 19.121 73.8719 17.6527 75.6045C16.8329 76.5693 16.4489 77.6898 15.8056 79.0488C15.2919 80.133 14.4099 79.8062 14.4099 79.8062C14.4099 79.8062 3.88754 71.3924 4.28187 74.2662C4.67619 77.1347 9.34586 80.9474 9.34586 80.9474C9.34586 80.9474 1.07536 76.4656 1.93666 79.137C2.80314 81.8085 8.07467 83.152 8.07467 83.152C8.07467 83.152 -1.12975 81.3727 0.120678 82.8978C1.781 84.9208 8.13694 85.8908 8.13694 85.8908C8.13694 85.8908 1.33479 85.756 2.70975 87.5663C3.3168 88.3703 7.86713 88.4948 7.86713 88.4948C7.86713 88.4948 10.0619 91.2648 13.8028 92.0429L15.2193 92.7536L15.1829 92.8521L68.3393 127.353L79.2092 112.828C79.2092 112.828 63.1871 100.7 19.8526 83.152L19.8474 83.1468Z" fill="#FFD1C7"/>
<g opacity="0.35">
<path d="M45.9822 94.5176L42.6875 110.697L66.3783 126.077L69.6834 125.537L79.1991 112.818C79.1991 112.818 69.8027 105.712 45.977 94.5176H45.9822Z" fill="#FFB2A8"/>
</g>
<path d="M74.0834 106.1C74.0834 106.1 50.0866 92.1308 49.1682 94.4702C48.2498 96.8097 45.1367 114.602 45.1367 114.602L68.5214 130.102L74.0783 106.105L74.0834 106.1Z" fill="#FFD45C"/>
<g opacity="0.11">
<path d="M68.5258 130.102L74.0827 106.106C74.0827 106.106 72.7596 105.333 70.7309 104.191C69.662 104.871 68.7177 105.613 67.9446 106.422C64.6032 109.939 64.5565 118.612 65.8796 128.349L68.5258 130.102Z" fill="#883023"/>
</g>
<path d="M98.9767 168H80.324L79.0943 164.047L78.9282 163.508L78.233 161.283L77.5273 159.021L95.8272 148.797L97.2748 157.626L97.4461 158.658L97.5343 159.208L98.9767 168Z" fill="#FFD1C7"/>
<g opacity="0.35">
<path d="M98.9761 168H80.3234L79.0938 164.048L87.9505 161.449L97.4455 158.658L97.5337 159.208L98.9761 168Z" fill="#FFB2A8"/>
</g>
<path d="M107.916 168L101.949 162.979L103.189 168H76.6863L75.9184 163.161L75.6953 161.771L78.2325 161.283L97.2743 157.626L126.091 152.086L137.247 168H107.916Z" fill="#8199ED"/>
<path d="M126.091 152.086C126.091 152.086 110.354 105.12 97.1596 101.193C91.7272 99.5748 75.3834 101.634 69.5722 107.75C61.1824 116.579 75.1188 160.37 76.2083 164.12C87.6802 161.537 111.153 156.163 126.096 152.086H126.091Z" fill="white"/>
<path d="M92.6093 100.669C87.151 100.618 79.3164 101.935 73.8477 104.721C75.3056 109.7 79.9545 112.953 84.7902 112.138C89.8957 111.277 93.3098 106.199 92.6093 100.669Z" fill="#FFD45C"/>
<path d="M90.5918 100.705C85.891 100.918 80.0591 101.997 75.4258 103.983C77.5271 107.308 80.6921 110.327 84.2203 109.487C87.7796 108.636 89.9277 105.815 90.597 100.71L90.5918 100.705Z" fill="#FFD1C7"/>
<path d="M78.2773 99.7769L79.974 106.417L86.8747 105.099L84.296 98.1377L78.2773 99.7769Z" fill="#FFD1C7"/>
<g opacity="0.35">
<path d="M78.2773 99.7769L79.974 106.417L86.8747 105.099L84.296 98.1377L78.2773 99.7769Z" fill="#FFB2A8"/>
</g>
<path d="M106.78 64.9188C106.915 72.3832 112.575 78.3382 119.419 78.2137C126.268 78.0892 131.705 71.9371 131.571 64.4727C131.436 57.0082 125.775 51.0532 118.931 51.1777C112.082 51.3022 106.645 57.4543 106.78 64.9188Z" fill="#FFD1C7"/>
<g opacity="0.35">
<path d="M112.449 64.7159C112.527 69.1199 115.863 72.6265 119.905 72.5539C123.942 72.4813 127.148 68.8502 127.07 64.4514C126.993 60.0474 123.656 56.5408 119.62 56.6134C115.583 56.686 112.377 60.3119 112.454 64.7159H112.449Z" fill="#FFB2A8"/>
</g>
<path d="M25.979 69.577C26.1139 77.0415 31.7746 82.9964 38.6182 82.8719C45.4671 82.7474 50.9047 76.5953 50.7697 69.1309C50.6348 61.6664 44.9742 55.7114 38.1305 55.8359C31.2817 55.9604 25.8441 62.1125 25.979 69.577Z" fill="#FFD1C7"/>
<path d="M31.6498 69.3741C31.7277 73.7781 35.0639 77.2847 39.1005 77.2121C43.1372 77.1395 46.3437 73.5084 46.2659 69.1096C46.188 64.7056 42.8518 61.199 38.8152 61.2716C34.7785 61.3442 31.572 64.9701 31.6498 69.3741Z" fill="#FFB2A8"/>
<path d="M69.0588 27.2275L86.57 28.0212C108.538 25.412 116.876 44.5374 117.203 62.7759L117.302 68.2277C123.683 86.9122 103.111 101.514 84.8734 101.841L70.6984 102.095C52.4607 102.422 37.4037 87.9082 37.0768 69.6749L36.9782 64.2231C36.6513 45.9899 50.816 27.5595 69.0536 27.2275H69.0588Z" fill="#FFD1C7"/>
<g opacity="0.35">
<path d="M86.5692 28.027L69.058 27.2334C52.3146 27.5343 39.0113 43.0961 37.1953 59.7524C40.8895 58.7564 46.4153 56.2458 46.986 50.0729C46.986 50.0729 52.3198 48.2315 54.0787 44.1698C54.0787 44.1698 58.0947 52.3294 69.058 47.0954C80.0265 41.8563 81.142 36.2126 81.142 36.2126L95.4156 37.1878C95.4156 37.1878 101.621 57.2054 114.432 57.2988L110.981 39.0448C106.171 31.4662 98.3212 26.6369 86.5692 28.0322V28.027Z" fill="#FFB2A8"/>
</g>
<path d="M99.1178 30.5425C99.1178 30.5425 96.8712 45.6686 111.684 56.1935C111.684 56.1935 114.502 69.0009 117.304 68.228C120.105 67.4551 118.933 51.1723 118.933 51.1723C118.933 51.1723 133.18 53.8852 131.572 64.4672C131.572 64.4672 139.303 51.1826 133.979 31.8497C128.656 12.5168 99.1126 30.5373 99.1126 30.5373L99.1178 30.5425Z" fill="#7F3B6A"/>
<path d="M51.1839 31.4711C39.9352 37.4572 36.573 53.8646 39.9248 56.1107C41.6266 57.2519 43.9044 52.8323 45.7359 48.2053C45.9124 48.3764 46.1355 48.5217 46.4156 48.6254C49.4198 49.7251 53.7366 41.7315 55.4385 38.2872C54.6083 40.6007 54.1725 44.901 61.4053 46.6024C71.5177 48.9833 82.9843 29.1628 82.9843 29.1628C82.9843 29.1628 62.4326 25.485 51.1839 31.4711Z" fill="#7F3B6A"/>
<path d="M71.6804 74.6912C77.5538 72.6371 78.9547 77.0255 81.274 75.9777C83.5932 74.9298 85.4196 70.531 89.4407 72.2376C93.4618 73.9443 95.5372 87.2029 79.0688 88.2559C67.5452 88.9925 65.8018 76.7506 71.6804 74.6912Z" fill="#7F3B6A"/>
<path d="M92.0967 76.3248C90.3378 76.2677 88.5062 76.47 86.6695 76.9887C80.6975 78.685 76.4325 83.1357 75.4727 88.0117C76.5467 88.2347 77.74 88.3333 79.0683 88.2451C90.5297 87.5137 93.0047 80.8688 92.0967 76.3196V76.3248Z" fill="#FF748B"/>
<path d="M69.7461 76.0088C71.9823 79.7177 77.0982 81.5073 82.2089 80.0548C86.2352 78.9136 89.2082 76.0503 90.2667 72.7719C90.0073 72.5437 89.7323 72.3569 89.4417 72.2324C85.4206 70.5258 83.5942 74.9298 81.275 75.9725C78.9557 77.0203 77.5548 72.6267 71.6814 74.686C70.8979 74.9609 70.2546 75.4226 69.7461 76.0036V76.0088Z" fill="#FDFAF7"/>
<path d="M71.1225 61.5776L71.1329 61.8474L71.2263 66.1165C71.2419 66.6456 71.2004 67.1643 71.1174 67.6727L54.8721 68.3522C54.7216 67.7661 54.6334 67.1488 54.6231 66.5159L54.5141 62.1171C54.4051 57.5368 58.0371 53.7293 62.6186 53.6204C67.1585 53.5166 70.9306 57.0699 71.1174 61.5828L71.1225 61.5776Z" fill="#FDFAF7"/>
<path d="M71.1339 61.8003L71.1443 61.9871L71.2429 66.3807C71.2533 66.8216 71.2325 67.247 71.1703 67.6671L59.6258 68.1496C59.2419 67.0965 59.0188 65.9346 58.9876 64.7156C58.8683 59.7254 62.054 55.6067 66.1011 55.5082C66.8171 55.4926 67.5175 55.6119 68.1765 55.835C69.8887 57.277 71.025 59.3986 71.1391 61.8055L71.1339 61.8003Z" fill="#7F3B6A"/>
<path d="M85.1176 60.7843L85.1488 61.0541L85.7299 65.2817C85.7973 65.8056 85.9219 66.314 86.0827 66.7964L102.229 64.8978C102.286 64.2961 102.276 63.6685 102.188 63.0408L101.596 58.6783C100.979 54.1395 96.7918 50.9493 92.2467 51.5718C87.7482 52.1839 84.5832 56.2922 85.1124 60.7792L85.1176 60.7843Z" fill="#FDFAF7"/>
<path d="M85.1422 61.0073L85.163 61.1941L85.7597 65.5462C85.8167 65.9819 85.9101 66.3969 86.0347 66.8067L97.5117 65.458C97.7244 64.3583 97.7607 63.1756 97.5999 61.967C96.9254 57.0183 93.1274 53.4547 89.1218 53.9993C88.411 54.0979 87.7417 54.3209 87.1243 54.6477C85.6611 56.344 84.8724 58.6212 85.1422 61.0125V61.0073Z" fill="#7F3B6A"/>
<path d="M128.691 62.3992C128.691 62.3992 128.708 62.3772 128.713 62.3662C128.708 62.3772 128.697 62.3882 128.691 62.3992Z" fill="#56261C"/>
<path d="M129.914 60.4487C129.93 60.4222 129.946 60.3957 129.967 60.3691C129.967 60.3691 129.951 60.401 129.914 60.4487Z" fill="#56261C"/>
<g opacity="0.5">
<path d="M94.1414 77.3158C94.1984 80.4437 97.5762 82.918 101.691 82.8402C105.8 82.7624 109.089 80.1688 109.032 77.0409C108.975 73.913 105.598 71.4386 101.483 71.5164C97.3738 71.5942 94.0843 74.1879 94.1414 77.3158Z" fill="#FF748B"/>
</g>
<path d="M53.2612 53.6827C53.5518 51.3847 55.5753 49.2424 57.5832 48.3761C58.128 48.1427 58.704 47.9404 59.2643 47.7433C59.7624 47.5721 60.2657 47.6239 60.7949 47.7173C62.118 47.9404 63.2387 48.7703 64.1 49.7663C64.9198 50.7156 66.4297 49.4551 65.5943 48.5162C64.4321 47.209 62.9845 46.2545 61.2671 45.8862C60.5355 45.7306 59.7935 45.741 59.0516 45.7047C58.2214 45.6632 57.4587 45.824 56.7012 46.156C55.2847 46.7784 53.9461 47.8211 53.0692 49.1023C52.1509 50.4406 51.7202 51.9086 51.549 53.5063C51.4297 54.6112 53.1211 54.7772 53.2612 53.6827Z" fill="#7F3B6A"/>
<path d="M100.751 46.0157C99.4643 43.1938 96.9479 41.482 93.9074 40.9841C93.1447 40.8596 92.3976 40.8855 91.6556 41.0982C90.9552 41.3005 90.234 41.4042 89.5387 41.6688C88.06 42.2342 86.8303 43.2924 86.0053 44.6411C85.3516 45.7097 86.9548 46.8457 87.593 45.7667C88.226 44.6981 89.1029 43.8682 90.2703 43.4117C90.7787 43.2146 91.3235 43.0641 91.8683 43.1368C92.465 43.2198 93.0669 43.2768 93.6636 43.3546C95.6663 43.6296 98.2658 44.8226 99.1893 46.7367C99.6667 47.7327 101.208 47.022 100.746 46.0105L100.751 46.0157Z" fill="#7F3B6A"/>
<g opacity="0.5">
<path d="M46.9656 80.3197C47.0226 83.4476 50.4004 85.922 54.5149 85.8441C58.6242 85.7663 61.9137 83.1727 61.8566 80.0448C61.7995 76.9169 58.4218 74.4425 54.3073 74.5203C50.198 74.5981 46.9085 77.1918 46.9656 80.3197Z" fill="#FF748B"/>
</g>
<path d="M106.205 3.26847C107.559 0.482904 115.025 3.60564 113.37 5.70648C111.72 7.81251 105.146 5.43674 106.205 3.26847Z" fill="#77AFFF"/>
<path d="M45.6445 29.8996C45.6445 29.8996 48.8458 11.9932 69.2575 2.79618C87.5055 -5.42564 125.459 5.42093 133.792 22.9487C141.523 39.2108 135.012 55.1409 134.871 54.3161C134.731 53.4913 101.94 27.0881 45.6445 29.8996Z" fill="white"/>
<g opacity="0.19">
<path d="M111.005 5.22363C112.66 7.95732 113.926 11.0645 114.056 14.2858C114.3 20.3912 112.536 32.3323 111.135 40.6734C126.498 47.0486 134.8 53.9061 134.867 54.3159C135.007 55.1407 141.524 39.2106 133.788 22.9485C130.26 15.5255 121.408 9.3112 111 5.22363H111.005Z" fill="#56261C"/>
</g>
<path d="M116.389 43.6619C105.13 9.51416 22.6276 10.5464 16.8735 31.0361C13.4179 43.3403 30.1457 49.7414 38.6964 52.0031C38.6964 52.0031 41.3477 42.8216 49.6909 35.7929C51.7611 34.0499 69.6251 26.7463 100.684 37.1934L116.384 43.6619H116.389Z" fill="#77AFFF"/>
<g opacity="0.19">
<path d="M84.5106 32.6434C73.4124 25.1063 19.3688 23.8043 18.2273 34.0232C17.0911 44.2422 38.4677 49.6317 38.4677 49.6317C38.4677 49.6317 38.8984 49.5591 39.6663 49.4294C41.0568 46.203 44.0817 40.5177 49.6905 35.7921C51.3871 34.3656 63.6736 29.2147 85.1125 33.131C84.9361 32.9702 84.7441 32.8094 84.5054 32.6486L84.5106 32.6434Z" fill="#56261C"/>
</g>
<path d="M46.9419 45.7623C46.9419 45.7623 40.8869 62.844 35.7554 58.4193C30.624 53.9945 39.4444 41.3687 39.4444 41.3687C39.4444 41.3687 30.5098 42.5151 29.9702 39.3198C29.3632 35.725 35.0135 31.0253 44.6537 28.9919C61.9263 25.3453 80.9993 32.4259 80.9993 32.4259C80.9993 32.4259 57.0231 31.2536 46.9419 45.7623Z" fill="#7F3B6A"/>
</g>
<defs>
<clipPath id="clip0_909_14453">
<rect width="165" height="168" fill="white"/>
</clipPath>
</defs>
</svg>
